<svg width="25.3333" height="25.3333" viewBox="0 0 25.3333 25.3333" fill="none" xmlns="http://www.w3.org/2000/svg">
<g id="Icon / &#236;&#185;&#180;&#235;&#169;&#148;&#235;&#157;&#188;">
<path id="Vector" fill-rule="evenodd" clip-rule="evenodd" d="M10.1544 3.16667C9.70638 3.16722 9.26583 3.28186 8.87432 3.49978C8.48282 3.71769 8.15325 4.0317 7.91667 4.41222L7.28333 5.43611C7.23728 5.51588 7.17116 5.5822 7.09153 5.6285C7.0119 5.67479 6.92155 5.69944 6.82944 5.7H5.80556C5.10568 5.7 4.43447 5.97802 3.93958 6.47291C3.44469 6.9678 3.16667 7.63901 3.16667 8.33889V19.5278C3.16667 20.2277 3.44469 20.8989 3.93958 21.3938C4.43447 21.8886 5.10568 22.1667 5.80556 22.1667H19.5278C20.2277 22.1667 20.8989 21.8886 21.3938 21.3938C21.8886 20.8989 22.1667 20.2277 22.1667 19.5278V8.33889C22.1667 7.63901 21.8886 6.9678 21.3938 6.47291C20.8989 5.97802 20.2277 5.7 19.5278 5.7H18.5039C18.4118 5.69944 18.3214 5.67479 18.2418 5.6285C18.1622 5.5822 18.0961 5.51588 18.05 5.43611L17.4167 4.41222C17.1801 4.0317 16.8505 3.71769 16.459 3.49978C16.0675 3.28186 15.627 3.16722 15.1789 3.16667H10.1544ZM12.6667 9.39444C12.0637 9.39444 11.4666 9.51321 10.9095 9.74396C10.3524 9.97472 9.84624 10.3129 9.41987 10.7393C8.99349 11.1657 8.65527 11.6719 8.42452 12.229C8.19377 12.786 8.075 13.3831 8.075 13.9861C8.075 14.5891 8.19377 15.1862 8.42452 15.7433C8.65527 16.3004 8.99349 16.8065 9.41987 17.2329C9.84624 17.6593 10.3524 17.9975 10.9095 18.2283C11.4666 18.459 12.0637 18.5778 12.6667 18.5778C13.8845 18.5778 15.0524 18.094 15.9135 17.2329C16.7746 16.3718 17.2583 15.2039 17.2583 13.9861C17.2583 12.7683 16.7746 11.6004 15.9135 10.7393C15.0524 9.87821 13.8845 9.39444 12.6667 9.39444ZM12.6667 11.2944C13.3805 11.2944 14.0652 11.578 14.57 12.0828C15.0747 12.5876 15.3583 13.2722 15.3583 13.9861C15.3583 14.7 15.0747 15.3846 14.57 15.8894C14.0652 16.3942 13.3805 16.6778 12.6667 16.6778C11.9528 16.6778 11.2682 16.3942 10.7634 15.8894C10.2586 15.3846 9.975 14.7 9.975 13.9861C9.975 13.2722 10.2586 12.5876 10.7634 12.0828C11.2682 11.578 11.9528 11.2944 12.6667 11.2944Z" fill="white"/>
</g>
</svg>
